<svg id="Layer_1" data-name="Layer 1" xmlns="http://www.w3.org/2000/svg" viewBox="0 0 427 141.28"><defs><style>.cls-1,.cls-2{fill:#fff;}.cls-2{font-size:80px;font-family:Upgrade-SemiboldItalic, Upgrade;font-weight:700;font-style:italic;}.cls-3{letter-spacing:-0.01em;}.cls-4{letter-spacing:-0.02em;}</style></defs><title>Logo</title><path class="cls-1" d="M35,39.64s0-2-2,45c-.45,10.63,8.89,10.9,8.89,10.9H98.61c2.25-1.47,2.08-3.14,2.08-3.14a3.68,3.68,0,0,0-2.38-3.25H81.61s-2.92-.57-2.63-3.32a3.28,3.28,0,0,1,3-3H114.4s2.81-.72,2.66-3.25a3.36,3.36,0,0,0-2.38-3.1h-26s-4.19.15-3.61-3.32,2.74-2.95,2.74-2.95h15.94s2.74-.58,2.74-3.18A3.55,3.55,0,0,0,104,63.77l-4-.15a2.73,2.73,0,0,1-2.45-3,3.4,3.4,0,0,1,2.52-3.2L113,57.35a3.57,3.57,0,0,0,2.16-3c.29-2.31-2.45-3.39-2.45-3.39l-19.26.07a3.84,3.84,0,0,1-2.74-3.31c-.14-2.6,3.1-3,3.1-3L121,44.8s4,0,3.61-3.39-3.1-3.1-3.1-3.1H98.74c-2.81-.43-3.24-.65-3.68-3.25s3.46-2.81,3.46-2.81l16.88.22s3.68.21,4.11-2.82S116.7,26,116.7,26H45.18C35.88,27.49,35,39.64,35,39.64Z"/><text class="cls-2" transform="translate(135.22 89.26)"><tspan class="cls-3">M</tspan><tspan x="65.28" y="0">edl</tspan><tspan class="cls-4" x="165.92" y="0">e</tspan><tspan x="203.04" y="0">y</tspan></text></svg>